<?xml version="1.0" encoding="utf-8"?>
<!-- Generator: Adobe Illustrator 21.1.0, SVG Export Plug-In . SVG Version: 6.00 Build 0)  -->
<svg version="1.1" xmlns="http://www.w3.org/2000/svg" xmlns:xlink="http://www.w3.org/1999/xlink" x="0px" y="0px"
	 viewBox="0 0 7.3 7.3" style="enable-background:new 0 0 7.3 7.3;" xml:space="preserve">
<style type="text/css">
	.st0{display:none;}
	.st1{display:inline;fill:#DB0029;}
	.st2{display:inline;fill:#003082;stroke:#003082;stroke-miterlimit:10;}
	.st3{display:inline;fill:#003082;}
	.st4{display:inline;}
	.st5{fill:#003082;}
	.st6{display:inline;fill:none;stroke:#003082;stroke-width:0.25;stroke-miterlimit:10;}
	.st7{fill:#0079D3;}
	.st8{fill:none;stroke:#003082;stroke-width:0.25;stroke-miterlimit:10;}
	.st9{fill:#FFFFFF;}
	.st10{fill:#FFC917;}
	.st11{font-family:'NSSans-Bold';}
	.st12{font-size:4.5066px;}
</style>
<g id="Layer_1" class="st0">
	<g id="Layer_1_1_">
		<path class="st1" d="M3.6-3.8l8.8,15.9H-5.2L3.6-3.8 M3.6-5.9l-10.5,19h21L3.6-5.9L3.6-5.9z"/>
		<path class="st1" d="M3.6,7.1L3.6,7.1c-0.3,0-0.5-0.2-0.5-0.5v-5c0-0.3,0.2-0.5,0.5-0.5l0,0c0.3,0,0.5,0.2,0.5,0.5v5
			C4.1,6.9,3.9,7.1,3.6,7.1z"/>
		<rect x="3.1" y="5.1" class="st1" width="1" height="2"/>
		<circle class="st1" cx="3.6" cy="9.3" r="0.8"/>
	</g>
	<g id="Layer_5">
		<path class="st2" d="M12.5,11.1l-1.6-4.5c0.8-1.1,1.3-2.3,1.3-3.7C12.2-0.9,8.3-4,3.5-4c-4.8,0.1-8.7,3.2-8.7,7s3.9,6.9,8.7,6.9
			c1.4,0,2.7-0.3,3.9-0.7L12.5,11.1z"/>
	</g>
	<g id="Layer_8">
		<path class="st3" d="M3.3,12.5l-0.2-0.1C2.7,12.1-5.8,6.8-5.8,0.9c0-3.3,2.6-5.3,5.1-5.3c1.2,0,2.3,0.5,3.1,1.3
			c0.4,0.4,0.7,0.8,0.9,1.3c0.2-0.5,0.5-0.9,0.9-1.3C5-3.9,6.1-4.4,7.3-4.4c2.5,0,5.1,2,5.1,5.3c0,5.9-8.5,11.3-8.8,11.5L3.3,12.5z
			 M-0.7-3.4c-2,0-4.1,1.6-4.1,4.3c0,4.8,6.7,9.5,8.1,10.5c1.4-1,8.1-5.7,8.1-10.5c0-2.7-2.1-4.3-4.1-4.3c-0.9,0-1.8,0.4-2.4,1
			C3.6-1.1,3.3,0.9,3.3,0.9S3-1.1,1.7-2.4C1.1-3,0.3-3.4-0.7-3.4z"/>
	</g>
	<g id="Layer_2">
		<g class="st4">
			<path class="st5" d="M12.1-2.9v15h-17l0.3-15h17 M13.1-3.9h-19v17h19V-3.9L13.1-3.9z"/>
		</g>
		<path class="st3" d="M-2.4-1.9L-2.4-1.9c-0.3,0-0.5-0.2-0.5-0.5v-3c0-0.3,0.2-0.5,0.5-0.5l0,0c0.3,0,0.5,0.2,0.5,0.5v3
			C-1.9-2.1-2.1-1.9-2.4-1.9z"/>
		<path class="st3" d="M9.6-1.9L9.6-1.9c-0.3,0-0.5-0.2-0.5-0.5v-3c0-0.3,0.2-0.5,0.5-0.5l0,0c0.3,0,0.5,0.2,0.5,0.5v3
			C10.1-2.1,9.9-1.9,9.6-1.9z"/>
		<g class="st4">
			<rect x="-2.9" y="0.1" class="st5" width="1" height="1"/>
		</g>
		<g class="st4">
			<rect x="-2.9" y="3.1" class="st5" width="1" height="1"/>
		</g>
		<g class="st4">
			<rect x="-2.9" y="6.1" class="st5" width="1" height="1"/>
		</g>
		<g class="st4">
			<rect x="-2.9" y="9.1" class="st5" width="1" height="1"/>
		</g>
		<g class="st4">
			<rect x="1.1" y="0.1" class="st5" width="1" height="1"/>
		</g>
		<g class="st4">
			<path class="st5" d="M2.1,3.1v1h-1v-1H2.1 M3.1,2.1h-3v3h3V2.1L3.1,2.1z"/>
		</g>
		<g class="st4">
			<rect x="1.1" y="6.1" class="st5" width="1" height="1"/>
		</g>
		<g class="st4">
			<rect x="1.1" y="9.1" class="st5" width="1" height="1"/>
		</g>
		<g class="st4">
			<rect x="5.1" y="0.1" class="st5" width="1" height="1"/>
		</g>
		<g class="st4">
			<rect x="5.1" y="3.1" class="st5" width="1" height="1"/>
		</g>
		<g class="st4">
			<rect x="5.1" y="6.1" class="st5" width="1" height="1"/>
		</g>
		<g class="st4">
			<rect x="5.1" y="9.1" class="st5" width="1" height="1"/>
		</g>
		<g class="st4">
			<rect x="9.1" y="0.1" class="st5" width="1" height="1"/>
		</g>
		<g class="st4">
			<rect x="9.1" y="3.1" class="st5" width="1" height="1"/>
		</g>
		<g class="st4">
			<rect x="9.1" y="6.1" class="st5" width="1" height="1"/>
		</g>
	</g>
	<g id="Layer_6">
		<polygon class="st6" points="9.4,11.1 9.4,-3.9 -2.2,-3.9 -2.2,11.1 3.6,3.6 		"/>
	</g>
	<g id="Layer_7">
	</g>
	<g id="Layer_3">
		<g class="st4">
			<polygon class="st5" points="4.9,3.6 0.9,7.6 2.3,7.6 6.3,3.6 2.3,-0.4 0.9,-0.4 			"/>
		</g>
	</g>
	<g id="Layer_4">
		<g class="st4">
			<polygon class="st7" points="-2.9,3.6 -6.9,7.6 -5.5,7.6 -1.5,3.6 -5.5,-0.4 -6.9,-0.4 			"/>
		</g>
	</g>
	<g>
		<polygon class="st6" points="10.4,-1.8 10.4,4 15,-1.8 		"/>
		<polygon class="st6" points="10.4,6.9 10.4,15.2 16.2,7.7 		"/>
		<polygon class="st6" points="19.1,7.8 21.2,10.6 24,3.4 		"/>
		<polygon class="st6" points="24,9.5 24,15.2 22.2,12.8 24,8 		"/>
		<polygon class="st6" points="24,-1.8 24,1.1 18.2,5.7 19.1,-1.8 		"/>
		<polygon class="st6" points="17.9,-1.8 13.4,4 17.3,4.6 		"/>
		<g class="st4">
			<polygon class="st8" points="-2.2,-3.9 -2.2,1.9 2.4,-3.9 			"/>
			<polygon class="st8" points="-2.2,2.8 -2.2,11.1 3.6,3.6 			"/>
			<polygon class="st8" points="4.4,4.6 6.5,7.4 9.2,0.3 			"/>
			<polygon class="st8" points="9.4,5.4 9.4,11.1 7.6,8.7 9.4,3.9 			"/>
			<polygon class="st8" points="9.4,-3.9 9.4,-1 3.6,3.6 4.4,-3.9 			"/>
			<polygon class="st8" points="3.3,-3.7 -1.2,1.9 2.7,2.5 			"/>
		</g>
	</g>
</g>
<g id="Layer_3_1_" class="st0">
	<g id="XMLID_1_" class="st4">
		<g>
			<path class="st9" d="M29.5-7.8c0.1,0.3,0.1,0.7-0.2,0.9l-6,6v4.9c0,0.2-0.1,0.5-0.2,0.6l-3.4,3.5c-0.2,0.2-0.4,0.3-0.6,0.3
				c-0.1,0-0.2,0-0.3-0.1c-0.3-0.1-0.5-0.4-0.5-0.8v-8.4l-6-6c-0.2-0.2-0.3-0.6-0.2-0.9c0.1-0.3,0.4-0.5,0.8-0.5h15.8
				C29.1-8.3,29.4-8.1,29.5-7.8z M26.7-5.6l1.7-1.7H13.3L15.6-5c0.5-0.3,1.3-0.7,2.8-0.7c1.2,0,1.8,0.4,2.4,0.7
				c0.5,0.3,0.9,0.5,1.8,0.4C24.3-4.8,26.3-5.5,26.7-5.6z M22.4-1.2l2.9-2.9c-0.8,0.2-1.7,0.4-2.6,0.5c-0.2,0-0.4,0-0.5,0
				c-0.9,0-1.4-0.3-1.9-0.6c-0.5-0.3-0.9-0.5-1.9-0.5c-1.1,0-1.7,0.2-2.1,0.4l3,3v8.5L22.4,4L22.4-1.2z"/>
			<path class="st9" d="M25.2-4.1l-2.9,2.9l0,5.3l-3.1,3.2v-8.5l-3-3c0.3-0.2,0.9-0.4,2.1-0.4c1,0,1.4,0.3,1.9,0.5
				c0.5,0.3,1,0.6,1.9,0.6c0.2,0,0.3,0,0.5,0C23.5-3.7,24.4-3.9,25.2-4.1z"/>
		</g>
		<g>
		</g>
	</g>
</g>
<g id="Layer_4_1_" class="st0">
	<path class="st2" d="M2.4,2.6h-6.6c-0.1,0-0.2-0.1-0.2-0.2v-6.6c0-0.1,0.1-0.2,0.2-0.2h6.6c0.1,0,0.2,0.1,0.2,0.2v6.6
		C2.6,2.5,2.5,2.6,2.4,2.6z"/>
	<path class="st2" d="M11.5,2.6H4.9c-0.1,0-0.2-0.1-0.2-0.2v-6.6c0-0.1,0.1-0.2,0.2-0.2h6.6c0.1,0,0.2,0.1,0.2,0.2v6.6
		C11.7,2.5,11.6,2.6,11.5,2.6z"/>
	<path class="st2" d="M11.5,11.7H4.9c-0.1,0-0.2-0.1-0.2-0.2V4.9c0-0.1,0.1-0.2,0.2-0.2h6.6c0.1,0,0.2,0.1,0.2,0.2v6.6
		C11.7,11.6,11.6,11.7,11.5,11.7z"/>
	<path class="st2" d="M2.4,11.7h-6.6c-0.1,0-0.2-0.1-0.2-0.2V4.9c0-0.1,0.1-0.2,0.2-0.2h6.6c0.1,0,0.2,0.1,0.2,0.2v6.6
		C2.6,11.6,2.5,11.7,2.4,11.7z"/>
</g>
<g id="Layer_2_1_" class="st0">
	<path class="st3" d="M6.9-3.8c-1.2,0-2.3,0.5-3.1,1.3C3.4-2.1,3.1-1.7,2.9-1.2C2.7-1.7,2.4-2.1,2-2.5C1.2-3.3,0.1-3.8-1.1-3.8
		c-2.5,0-5.1,2-5.1,5.3c0,5.9,8.5,11.2,8.9,11.5l0.2,0.1L3.2,13C3.5,12.8,12,7.4,12,1.5C12-1.8,9.4-3.8,6.9-3.8z"/>
</g>
<g id="Layer_5_1_">
	<circle class="st10" cx="3.6" cy="3.6" r="3.6"/>
	<text transform="matrix(1 0 0 1 2.2359 5.0015)" class="st5 st11 st12">1</text>
</g>
</svg>
