<?xml version="1.0" encoding="utf-8"?>
<!-- Generator: Adobe Illustrator 21.1.0, SVG Export Plug-In . SVG Version: 6.00 Build 0)  -->
<svg version="1.1" xmlns="http://www.w3.org/2000/svg" xmlns:xlink="http://www.w3.org/1999/xlink" x="0px" y="0px"
	 viewBox="0 0 21 19" style="enable-background:new 0 0 21 19;" xml:space="preserve">
<style type="text/css">
	.st0{display:none;}
	.st1{display:inline;fill:#DB0029;}
	.st2{display:inline;fill:none;stroke:#003082;stroke-miterlimit:10;}
	.st3{display:inline;fill:#003082;}
	.st4{fill:#003082;}
	.st5{display:inline;}
	.st6{fill:#0079D3;}
</style>
<g id="Layer_1" class="st0">
	<path class="st1" d="M10.5,2.1L19.3,18H1.7L10.5,2.1 M10.5,0L0,19h21L10.5,0L10.5,0z"/>
	<path class="st1" d="M10.5,13L10.5,13c-0.3,0-0.5-0.2-0.5-0.5v-5C10,7.2,10.2,7,10.5,7l0,0C10.8,7,11,7.2,11,7.5v5
		C11,12.8,10.8,13,10.5,13z"/>
	<rect x="10" y="11" class="st1" width="1" height="2"/>
	<circle class="st1" cx="10.5" cy="15.2" r="0.8"/>
</g>
<g id="Layer_5" class="st0">
	<path class="st2" d="M19.4,17l-1.6-4.5c0.8-1.1,1.3-2.3,1.3-3.7c0-3.8-3.9-6.9-8.7-6.9C5.6,2,1.7,5.1,1.7,8.9s3.9,6.9,8.7,6.9
		c1.4,0,2.7-0.3,3.9-0.7L19.4,17z"/>
</g>
<g id="Layer_8" class="st0">
	<path class="st3" d="M10.2,18.4L10,18.3C9.6,18,1.1,12.7,1.1,6.8c0-3.3,2.6-5.3,5.1-5.3c1.2,0,2.3,0.5,3.1,1.3
		c0.4,0.4,0.7,0.8,0.9,1.3c0.2-0.5,0.5-0.9,0.9-1.3C11.9,2,13,1.5,14.2,1.5c2.5,0,5.1,2,5.1,5.3c0,5.9-8.5,11.3-8.8,11.5L10.2,18.4z
		 M6.2,2.5c-2,0-4.1,1.6-4.1,4.3c0,4.8,6.7,9.5,8.1,10.5c1.4-1,8.1-5.7,8.1-10.5c0-2.7-2.1-4.3-4.1-4.3c-0.9,0-1.8,0.4-2.4,1
		c-1.3,1.3-1.6,3.3-1.6,3.3s-0.3-2-1.6-3.3C8,2.9,7.2,2.5,6.2,2.5z"/>
</g>
<g id="Layer_2">
	<g>
		<path class="st4" d="M17.4,4.2v12.2H3.6L3.8,4.2h13.8 M18.2,3.4H2.8v13.8h15.4V3.4L18.2,3.4z"/>
	</g>
	<path class="st4" d="M5.6,5L5.6,5C5.4,5,5.2,4.8,5.2,4.6V2.2c0-0.2,0.2-0.4,0.4-0.4l0,0C5.8,1.8,6,2,6,2.2v2.4C6,4.8,5.8,5,5.6,5z"
		/>
	<path class="st4" d="M15.4,5L15.4,5C15.2,5,15,4.8,15,4.6V2.2c0-0.2,0.2-0.4,0.4-0.4l0,0c0.2,0,0.4,0.2,0.4,0.4v2.4
		C15.8,4.8,15.6,5,15.4,5z"/>
	<g>
		<rect x="5.2" y="6.7" class="st4" width="0.8" height="0.8"/>
	</g>
	<g>
		<rect x="5.2" y="9.1" class="st4" width="0.8" height="0.8"/>
	</g>
	<g>
		<rect x="5.2" y="11.5" class="st4" width="0.8" height="0.8"/>
	</g>
	<g>
		<rect x="5.2" y="14" class="st4" width="0.8" height="0.8"/>
	</g>
	<g>
		<rect x="8.5" y="6.7" class="st4" width="0.8" height="0.8"/>
	</g>
	<g>
		<path class="st4" d="M9.3,9.1v0.8H8.5V9.1H9.3 M10.1,8.3H7.7v2.4h2.4V8.3L10.1,8.3z"/>
	</g>
	<g>
		<rect x="8.5" y="11.5" class="st4" width="0.8" height="0.8"/>
	</g>
	<g>
		<rect x="8.5" y="14" class="st4" width="0.8" height="0.8"/>
	</g>
	<g>
		<rect x="11.7" y="6.7" class="st4" width="0.8" height="0.8"/>
	</g>
	<g>
		<rect x="11.7" y="9.1" class="st4" width="0.8" height="0.8"/>
	</g>
	<g>
		<rect x="11.7" y="11.5" class="st4" width="0.8" height="0.8"/>
	</g>
	<g>
		<rect x="11.7" y="14" class="st4" width="0.8" height="0.8"/>
	</g>
	<g>
		<rect x="15" y="6.7" class="st4" width="0.8" height="0.8"/>
	</g>
	<g>
		<rect x="15" y="9.1" class="st4" width="0.8" height="0.8"/>
	</g>
	<g>
		<rect x="15" y="11.5" class="st4" width="0.8" height="0.8"/>
	</g>
</g>
<g id="Layer_9" class="st0">
	<g id="Layer_3_1_" class="st5">
		<g>
			<g>
				<path class="st4" d="M10.5,17.4c-4.3,0-7.9-3.6-7.9-7.9s3.6-7.9,7.9-7.9s7.9,3.6,7.9,7.9S14.8,17.4,10.5,17.4z M10.5,2.4
					c-3.9,0-7.1,3.2-7.1,7.1s3.2,7.1,7.1,7.1s7.1-3.2,7.1-7.1S14.4,2.4,10.5,2.4z"/>
			</g>
		</g>
		<g>
			<g>
				<path class="st4" d="M13.2,12.7c-0.1,0-0.2,0-0.2-0.1l-2.9-2.9V4.3c0-0.2,0.2-0.4,0.4-0.4s0.4,0.2,0.4,0.4v5l2.7,2.7
					c0.2,0.2,0.2,0.4,0,0.6C13.5,12.6,13.3,12.7,13.2,12.7z"/>
			</g>
		</g>
	</g>
</g>
<g id="Layer_6" class="st0">
	<polygon class="st2" points="16.3,17 16.3,2 4.7,2 4.7,17 10.5,9.5 	"/>
</g>
<g id="Layer_7" class="st0">
</g>
<g id="Layer_3" class="st0">
	<g class="st5">
		<polygon class="st4" points="11.8,9.5 7.8,13.5 9.2,13.5 13.2,9.5 9.2,5.5 7.8,5.5 		"/>
	</g>
</g>
<g id="Layer_4" class="st0">
	<g class="st5">
		<polygon class="st6" points="4,9.5 0,13.5 1.4,13.5 5.4,9.5 1.4,5.5 0,5.5 		"/>
	</g>
</g>
</svg>
