<?xml version="1.0" encoding="utf-8"?><!DOCTYPE svg PUBLIC "-//W3C//DTD SVG 1.1//EN" "http://www.w3.org/Graphics/SVG/1.1/DTD/svg11.dtd"><svg version="1.1" id="Layer_1" xmlns="http://www.w3.org/2000/svg" xmlns:xlink="http://www.w3.org/1999/xlink" x="0px" y="0px"  width="35px" height="35px" viewBox="0 0 35 35" enable-background="new 0 0 35 35" xml:space="preserve"> <path fill="#3B5998" d="M26,8H9C8.5,8,8,8.5,8,9V26c0,0.6,0.5,1,1,1h9.1v-7.4h-2.5v-2.9h2.5v-2.1c0-2.5,1.5-3.8,3.7-3.8   c1,0,1.9,0.1,2.2,0.1v2.6l-1.5,0c-1.2,0-1.4,0.6-1.4,1.4v1.8h2.8l-0.4,2.9h-2.5V27H26c0.6,0,1-0.5,1-1V9C27,8.5,26.5,8,26,8z"/></svg>