<?xml version="1.0" encoding="utf-8"?><!DOCTYPE svg PUBLIC "-//W3C//DTD SVG 1.1//EN" "http://www.w3.org/Graphics/SVG/1.1/DTD/svg11.dtd"><svg version="1.1" id="Layer_1" xmlns="http://www.w3.org/2000/svg" xmlns:xlink="http://www.w3.org/1999/xlink" x="0px" y="0px"  width="35px" height="35px" viewBox="0 0 35 35" enable-background="new 0 0 35 35" xml:space="preserve"><path fill="#231F20" d="M24.8,16h-1.7c0.1,0.5,0.2,1,0.2,1.5c0,3.2-2.6,5.8-5.8,5.8c-3.2,0-5.8-2.6-5.8-5.8c0-0.5,0.1-1,0.2-1.5 h-1.7v8c0,0.4,0.3,0.7,0.7,0.7h13.2c0.4,0,0.7-0.3,0.7-0.7V16z M24.8,10.9c0-0.4-0.3-0.7-0.7-0.7h-2.2c-0.4,0-0.7,0.3-0.7,0.7v2.2 c0,0.4,0.3,0.7,0.7,0.7h2.2c0.4,0,0.7-0.3,0.7-0.7V10.9z M17.5,13.8c-2,0-3.7,1.6-3.7,3.7c0,2,1.6,3.7,3.7,3.7s3.7-1.6,3.7-3.7 C21.2,15.5,19.5,13.8,17.5,13.8 M24.8,27H10.2C9,27,8,26,8,24.8V10.2C8,9,9,8,10.2,8h14.6C26,8,27,9,27,10.2v14.6 C27,26,26,27,24.8,27"/></svg>