<?xml version="1.0" encoding="utf-8"?>
<!-- Generator: Adobe Illustrator 21.1.0, SVG Export Plug-In . SVG Version: 6.00 Build 0)  -->
<svg version="1.1" xmlns="http://www.w3.org/2000/svg" xmlns:xlink="http://www.w3.org/1999/xlink" x="0px" y="0px"
	 viewBox="0 0 21 19" style="enable-background:new 0 0 21 19;" xml:space="preserve">
<style type="text/css">
	.st0{display:none;}
	.st1{display:inline;fill:#DB0029;}
	.st2{fill:none;stroke:#003082;stroke-miterlimit:10;}
	.st3{display:inline;fill:none;stroke:#003082;stroke-linecap:square;stroke-miterlimit:10;}
	.st4{display:inline;}
	.st5{fill:#003082;}
	.st6{display:inline;fill:#003082;}
	.st7{display:inline;fill:none;stroke:#003082;stroke-miterlimit:10;}
	.st8{fill:#0079D3;}
</style>
<g id="Layer_1" class="st0">
	<path class="st1" d="M10.5,2.1L19.3,18H1.7L10.5,2.1 M10.5,0L0,19h21L10.5,0L10.5,0z"/>
	<path class="st1" d="M10.5,13L10.5,13c-0.3,0-0.5-0.2-0.5-0.5v-5C10,7.2,10.2,7,10.5,7l0,0C10.8,7,11,7.2,11,7.5v5
		C11,12.8,10.8,13,10.5,13z"/>
	<rect x="10" y="11" class="st1" width="1" height="2"/>
	<circle class="st1" cx="10.5" cy="15.2" r="0.8"/>
</g>
<g id="Layer_5">
	<path class="st2" d="M19.4,17l-1.6-4.5c0.8-1.1,1.3-2.3,1.3-3.7c0-3.8-3.9-6.9-8.7-6.9C5.6,2,1.7,5.1,1.7,8.9s3.9,6.9,8.7,6.9
		c1.4,0,2.7-0.3,3.9-0.7L19.4,17z"/>
</g>
<g id="Layer_8" class="st0">
	<path class="st3" d="M10.5,6.9c0-7.2-8.9-5.9-8.9,0s8.9,11.4,8.9,11.4s8.9-5.5,8.9-11.4S10.5-0.2,10.5,6.9z"/>
</g>
<g id="Layer_2" class="st0">
	<g class="st4">
		<path class="st5" d="M19,3v15H2L2.3,3h17 M20,2H1v17h19V2L20,2z"/>
	</g>
	<path class="st6" d="M4.5,4L4.5,4C4.2,4,4,3.8,4,3.5v-3C4,0.2,4.2,0,4.5,0l0,0C4.8,0,5,0.2,5,0.5v3C5,3.8,4.8,4,4.5,4z"/>
	<path class="st6" d="M16.5,4L16.5,4C16.2,4,16,3.8,16,3.5v-3C16,0.2,16.2,0,16.5,0l0,0C16.8,0,17,0.2,17,0.5v3
		C17,3.8,16.8,4,16.5,4z"/>
	<g class="st4">
		<rect x="4" y="6" class="st5" width="1" height="1"/>
	</g>
	<g class="st4">
		<rect x="4" y="9" class="st5" width="1" height="1"/>
	</g>
	<g class="st4">
		<rect x="4" y="12" class="st5" width="1" height="1"/>
	</g>
	<g class="st4">
		<rect x="4" y="15" class="st5" width="1" height="1"/>
	</g>
	<g class="st4">
		<rect x="8" y="6" class="st5" width="1" height="1"/>
	</g>
	<g class="st4">
		<path class="st5" d="M9,9v1H8V9H9 M10,8H7v3h3V8L10,8z"/>
	</g>
	<g class="st4">
		<rect x="8" y="12" class="st5" width="1" height="1"/>
	</g>
	<g class="st4">
		<rect x="8" y="15" class="st5" width="1" height="1"/>
	</g>
	<g class="st4">
		<rect x="12" y="6" class="st5" width="1" height="1"/>
	</g>
	<g class="st4">
		<rect x="12" y="9" class="st5" width="1" height="1"/>
	</g>
	<g class="st4">
		<rect x="12" y="12" class="st5" width="1" height="1"/>
	</g>
	<g class="st4">
		<rect x="12" y="15" class="st5" width="1" height="1"/>
	</g>
	<g class="st4">
		<rect x="16" y="6" class="st5" width="1" height="1"/>
	</g>
	<g class="st4">
		<rect x="16" y="9" class="st5" width="1" height="1"/>
	</g>
	<g class="st4">
		<rect x="16" y="12" class="st5" width="1" height="1"/>
	</g>
</g>
<g id="Layer_6" class="st0">
	<polygon class="st7" points="16.3,17 16.3,2 4.7,2 4.7,17 10.5,9.5 	"/>
</g>
<g id="Layer_7" class="st0">
</g>
<g id="Layer_3" class="st0">
	<g class="st4">
		<polygon class="st5" points="11.8,9.5 7.8,13.5 9.2,13.5 13.2,9.5 9.2,5.5 7.8,5.5 		"/>
	</g>
</g>
<g id="Layer_4" class="st0">
	<g class="st4">
		<polygon class="st8" points="4,9.5 0,13.5 1.4,13.5 5.4,9.5 1.4,5.5 0,5.5 		"/>
	</g>
</g>
</svg>
