<?xml version="1.0" encoding="utf-8"?><!DOCTYPE svg PUBLIC "-//W3C//DTD SVG 1.1//EN" "http://www.w3.org/Graphics/SVG/1.1/DTD/svg11.dtd"><svg version="1.1" id="Layer_1" xmlns="http://www.w3.org/2000/svg" xmlns:xlink="http://www.w3.org/1999/xlink" x="0px" y="0px"  width="35px" height="35px" viewBox="0 0 35 35" enable-background="new 0 0 35 35" xml:space="preserve">    <path id="Twitter_1_" fill="#5FA8DC" d="M14,25.2c-2.2,0-4.3-0.6-6-1.8c0.3,0,0.6,0.1,0.9,0.1c1.8,0,3.5-0.6,4.8-1.7        c-1.7,0-3.1-1.2-3.6-2.7c0.2,0,0.5,0.1,0.7,0.1c0.4,0,0.7,0,1-0.1c-1.8-0.4-3.1-1.9-3.1-3.8c0,0,0,0,0,0c0.5,0.3,1.1,0.5,1.8,0.5        c-1-0.7-1.7-1.9-1.7-3.2c0-0.7,0.2-1.4,0.5-2c1.9,2.4,4.8,3.9,8,4.1c-0.1-0.3-0.1-0.6-0.1-0.9c0-2.2,1.7-3.9,3.9-3.9        c1.1,0,2.1,0.5,2.8,1.2c0.9-0.2,1.7-0.5,2.5-0.9c-0.3,0.9-0.9,1.7-1.7,2.2c0.8-0.1,1.5-0.3,2.2-0.6c-0.5,0.8-1.2,1.5-1.9,2        c0,0.2,0,0.3,0,0.5C25.1,19.3,21.1,25.2,14,25.2"/></svg>