<?xml version="1.0" encoding="utf-8"?>
<!-- Generator: Adobe Illustrator 21.1.0, SVG Export Plug-In . SVG Version: 6.00 Build 0)  -->
<svg version="1.1" xmlns="http://www.w3.org/2000/svg" xmlns:xlink="http://www.w3.org/1999/xlink" x="0px" y="0px"
	 viewBox="0 0 35 35" style="enable-background:new 0 0 35 35;" xml:space="preserve">
<style type="text/css">
	.st0{fill:#003082;}
	.st1{display:none;}
	.st2{display:inline;fill:none;stroke:#003082;stroke-miterlimit:10;}
</style>
<g id="Layer_1">
	<g>
		<path class="st0" d="M16,23.5c-4.1,0-7.5-3.4-7.5-7.5s3.4-7.5,7.5-7.5s7.5,3.4,7.5,7.5S20.1,23.5,16,23.5z M16,9.5
			c-3.6,0-6.5,2.9-6.5,6.5s2.9,6.5,6.5,6.5s6.5-2.9,6.5-6.5S19.6,9.5,16,9.5z"/>
	</g>
	<path class="st0" d="M21.5,20L20,21.5l5.2,5.2c0.2,0.2,0.5,0.3,0.7,0.3s0.5-0.1,0.7-0.3c0.4-0.4,0.4-1,0-1.4L21.5,20z"/>
</g>
<g id="Layer_2" class="st1">
	<polygon class="st2" points="23.3,25.7 23.3,9.3 10.1,9.3 10.1,25.7 16.7,17.5 	"/>
</g>
</svg>
